<?xml version="1.0" encoding="UTF-8" standalone="no"?>
<svg xmlns="http://www.w3.org/2000/svg" xml:space="preserve" viewBox="0 0 52 52" version="1.1">
    <path d="M 26,0 C 11.6,0 0,11.715415 0,26 0,40.387352 11.6,52 26,52 40.3,52 52,40.284586 52,26 51.9,11.715415 40.3,0 26,0 Z" fill="#043951"/>
    <path d="m 22.6,10.2 c 1,-3 5.8,-3 6.8,0 v 0 l 12,30.2 H 36.6 L 26,14 v 0 L 15.3,40.4 h -4.8 z" fill="#ffffff"/>
    <polygon points="27.7,33.8 31.5,34.4 28.7,37.1 29.4,40.9 26,39.1 22.5,40.9 23.2,37.1 20.4,34.4 24.3,33.8 26,30.3" fill="#E4C060"/>
</svg>
