<svg xmlns="http://www.w3.org/2000/svg" width="33.152" height="16.59783" viewBox="0 0 93.97418 47.04898">
    <style>
        .cls-1{fill:#fff;}
        .cls-2{fill:#e4c060;}
    </style>
    <path class="cls-1"
          d="M6.22434,39.77731C9.943,29.88364,17.46787,11.93643,23.08384,3.16641,22.68137,1.79788,19.34446-.45645,17.92649.08133,11.83726,9.68918,3.12632,31.24271.2335,41.634-.196,44.38284-.16287,45.48831,1.461,45.32376c8.05249-2.17084,18.647-4.337,19.969,1.72522C28.8397,35.58524,10.94932,38.51352,6.22434,39.77731Z"/>
    <path class="cls-1"
          d="M92.63853,26.76871c-.05616.11261-.16358.21106-.229.32678a23.48566,23.48566,0,0,1-2.0824,2.95593c-1.51941,1.90863-4.21252,4.51648-2.78613-.278A113.4654,113.4654,0,0,1,92.3021,17.74118q-2.26062-1.33227-4.52222-2.66534l-7.02551,8.20233A149.16566,149.16566,0,0,1,88.23545,6.90659c.07764-1.304-2.94592-3.21894-4.52832-2.94648-3.63025,7.70264-7.746,16.22174-10.22461,22.96088a18.81938,18.81938,0,0,1-4.86816,4.29419c-5.5315,3.48108-9.20557,2.074-7.44422-3.92127H61.161l.20581-.626c1.58166-4.6236,6.4226-8.58106,8.54113-6.36688-.16357.38183-.32482.76294-.48938,1.14483.34961.04883.69751.09448,1.04932.14331l1.55567-1.24566v-.14331C67.14927,10.06705,57.18662,18.876,55.79233,26.85379a2.78855,2.78855,0,0,0-.17065.2417,21.85561,21.85561,0,0,1-1.84424,2.65356c-1.40881,1.7984-4.54053,5.16687-3.00891.02442a130.65682,130.65682,0,0,1,5.00525-12.99683c-1.186-1.33465-2.85449-1.48742-4.70483-1.69214V15.079l-.00538.00549-.0592-.00549-.07214.15826-6.766,7.90393c.80432-2.10473,1.693-4.24487,2.63708-6.37951-.471-1.0567-3.81616-2.01264-4.99927-1.58508-1.92676,4.20758-3.70117,8.29113-5.01025,11.86932-.01148.01678-.02576.0321-.03565.04956-.95336,1.71027-6.8551,9.46692-4.83178,2.678a133.791,133.791,0,0,1,5.2135-12.963c-1.19763-1.35035-3.13416-1.57874-4.97534-1.7378-.17286.37561-.33948.75434-.507,1.12995l-.00232.00866c-.5155,1.18268-.99866,2.36377-1.44263,3.5307-2.359,5.515-4.9447,10.17163-8.09949,12.67633-1.63842,1.304-1.65075,1.34961-1.15917-.51965.33959-1.29132.18444-.73859.59838-2.12836A111.512,111.512,0,0,1,26.4647,16.75534c-.47-1.05664-3.81616-2.01257-4.99829-1.585a132.83607,132.83607,0,0,0-5.42554,13.66925c-1.1084,3.4079.477,6.31494,4.09045,6.66614a21.56672,21.56672,0,0,0,6.86121-6.03778l-.08606.28741c-.58679,2-.37878,4.93543,1.92737,5.58264a4.56141,4.56141,0,0,0,1.78747.1496c.05384.00555.10682.01184.16053.01813l.00927-.04254c1.96387-.32282,3.552-2.08905,4.87989-3.97022.53125,2.15851,3.20166,3.86359,4.79882,4.019.21119-1.12439.47937-2.30627.80042-3.52673A44.584,44.584,0,0,1,49.4603,18.70651c-1.58154,3.98584-2.76452,7.85749-3.70862,11.05432-.58679,2.0008-.37878,4.93543,1.92737,5.58271a4.5409,4.5409,0,0,0,1.78748.14959l.16052.01886c.00391-.01574.0061-.02832.00928-.04327,2.35058-.38507,4.0758-2.76617,5.3363-4.62915.24573-.36395.48279-.72717.71668-1.08618a6.513,6.513,0,0,0,1.45874,3.44366h-.003c3.41064,4.248,8.16857,2.45514,12.21447-.25036a22.54125,22.54125,0,0,0,2.8584-2.25995l-.00464.01507c-.02929,2.51966,3.11109,4.63306,4.89844,4.80628.17529-.9433.39575-1.92676.64917-2.94019a44.33537,44.33537,0,0,1,8.52344-13.996c-1.60926,4.03387-2.806,7.95276-3.76245,11.18664-.58765,1.99994-.37867,4.93464,1.92736,5.58185a4.562,4.562,0,0,0,1.78748.15039c.053.0055.10754.01184.16138.01734.00219-.015.00537-.0268.00842-.04175,2.23767-.36694,3.8999-2.52283,5.12122-4.2945.78662-1.14172,1.50415-2.32043,2.19238-3.27636.06531-.09131.10132-.20783.16675-.296A.75273.75273,0,0,0,92.63853,26.76871Z"/>
    <polygon class="cls-2" points="30.11 39.087 31.085 41.114 33.267 41.438 31.688 43.016 32.061 45.242 30.11 44.191 28.159 45.242 28.531 43.016 26.953 41.438 29.134 41.114 30.11 39.087"/>
    <polygon class="cls-2" points="38.167 39.087 39.143 41.114 41.324 41.438 39.746 43.016 40.118 45.242 38.167 44.191 36.216 45.242 36.589 43.016 35.01 41.438 37.192 41.114 38.167 39.087"/>
    <polygon class="cls-2" points="46.493 39.087 47.469 41.114 49.65 41.438 48.072 43.016 48.444 45.242 46.493 44.191 44.542 45.242 44.915 43.016 43.336 41.438 45.518 41.114 46.493 39.087"/>
    <polygon class="cls-2" points="54.551 39.087 55.526 41.114 57.707 41.438 56.129 43.016 56.502 45.242 54.551 44.191 52.6 45.242 52.972 43.016 51.394 41.438 53.575 41.114 54.551 39.087"/>
    <polygon class="cls-2" points="62.943 39.087 63.918 41.114 66.099 41.438 64.521 43.016 64.894 45.242 62.943 44.191 60.992 45.242 61.364 43.016 59.786 41.438 61.967 41.114 62.943 39.087"/>
    <path class="cls-1" d="M64.43375,11.90814V10.35642c-4.615.00187-8.76471.00212-8.76471.00212v1.5496Z"/>
    <line class="cls-1" x1="55.66904" y1="10.35854" x2="55.66904" y2="11.90814"/>
    <path class="cls-1" d="M64.43375,7.24483V5.69291C59.81871,5.695,55.669,5.695,55.669,5.695V7.24483Z"/>
    <path class="cls-1"
          d="M71.35292,1.0466h-.85434c-3.31281,0-4.92859,1.74678-4.93909,5.38035v.04839c0,3.65533,1.61027,5.4328,4.92258,5.4328h.88712c3.3127,0,4.92258-1.77747,4.92258-5.4328V6.4265C76.26038,2.79382,74.64486,1.0466,71.35292,1.0466Zm.52617,9.32858H69.97241c-1.91129,0-2.88045-1.30634-2.88045-3.88326a4.93729,4.93729,0,0,1,.70926-2.94106,2.57145,2.57145,0,0,1,2.18859-.975h1.87253a2.57769,2.57769,0,0,1,2.17919.97385,4.89419,4.89419,0,0,1,.71865,2.94219C74.76018,9.06884,73.7904,10.37518,71.87909,10.37518Z"/>
    <path class="cls-1" d="M29.23325,8.81369a.95812.95812,0,1,1-.9579-.95821A.95819.95819,0,0,1,29.23325,8.81369Z"/>
    <path class="cls-1" d="M27.13386,1.803a1.24026,1.24026,0,0,1,2.284,0h.00039l4.01958,10.10511H31.84633L28.278,3.05777h-.00538l-3.56852,8.85037H23.11257Z"/>
    <path class="cls-1" d="M64.43375,2.58176V1.0466c-4.615.00213-8.76471,0-8.76471,0V2.58176Z"/>
    <path class="cls-1"
          d="M43.78621,1.0466H42.2219V9.49639L36.6427,1.53862a1.27377,1.27377,0,0,0-.99272-.492,1.20475,1.20475,0,0,0-1.22137,1.20179l.001.01976v9.64h1.57023V3.44543l5.55144,7.92748a1.33405,1.33405,0,0,0,1.0128.53523,1.26807,1.26807,0,0,0,1.22136-1.3191Z"/>
    <path class="cls-1"
          d="M49.60452,1.0466H45.14427l.00193,9.54182a1.31909,1.31909,0,0,0,1.31491,1.31972h3.14341c3.29038,0,4.90577-1.7701,4.93841-5.41666V6.40105C54.51029,2.75449,52.8949,1.0466,49.60452,1.0466Zm2.68,8.34a2.55048,2.55048,0,0,1-2.18676.9846H46.69855V2.57633h3.41656a2.69834,2.69834,0,0,1,1.745.54285A4.06269,4.06269,0,0,1,52.986,6.42382,5.05317,5.05317,0,0,1,52.28456,9.38657Z"/>
</svg>
