<?xml version="1.0" encoding="utf-8"?>
<svg version="1.1" xmlns="http://www.w3.org/2000/svg" viewBox="0 0 78.2 38.2" xml:space="preserve">
<style type="text/css">
	.st0{fill:#FFFFFF;}
	.st1{fill:#E8C80D;}
</style>
    <path class="st0" d="M19.2,2.6c-4.7,7.1-10.9,21.7-14,29.7c3.9-1,18.8-3.4,12.7,5.9c-1.1-4.9-9.9-3.2-16.6-1.4
		c-1.4,0.1-1.4-0.8-1-3C2.6,25.4,9.9,7.9,14.9,0.1C16.1-0.4,18.9,1.5,19.2,2.6z"/>
    <path class="st0" d="M31.8,22.4c-0.1,0.1-0.1,0.2-0.1,0.2c-1.4,1.9-3.3,5.7-6.1,6.2c0,0,0,0,0,0c0,0-0.1,0-0.1,0
		c-0.5,0.1-1,0-1.5-0.1c-1.9-0.5-2.1-2.9-1.6-4.5l0.1-0.2c-1.6,2-3.5,3.8-5.7,4.9c-3-0.3-4.3-2.6-3.4-5.4c1.1-3.2,2.7-7.1,4.5-11.1
		c1-0.3,3.8,0.4,4.2,1.3c-1.6,3.6-3.1,7.2-4.1,10.6c-0.3,1.1-0.2,0.7-0.5,1.7c-0.4,1.5-0.4,1.5,1,0.4c2.6-2,4.8-5.8,6.7-10.3
		c0.4-0.9,0.8-1.9,1.2-2.9l0,0c0.1-0.3,0.3-0.6,0.4-0.9c1.5,0.1,3.1,0.3,4.1,1.4c-1.5,3.3-3.4,7.4-4.3,10.5c-1.7,5.5,3.2-0.8,4-2.2
		c0.1-0.1,0.1-0.2,0.2-0.3C31.1,21.3,32.2,21.5,31.8,22.4z"/>
    <path class="st0" d="M47.5,22.4c-0.1,0.1-0.1,0.2-0.1,0.2c-0.5,0.7-1.1,1.6-1.6,2.4c-1,1.5-2.5,3.4-4.4,3.8c0,0,0,0,0,0
		c0,0-0.1,0-0.1,0c-0.5,0.1-1,0-1.5-0.1c-1.9-0.5-2.1-2.9-1.6-4.5c0.8-2.6,1.8-5.7,3.1-9c-3,3.4-5.3,7-6.8,10.8
		c-0.3,1-0.5,2-0.7,2.9c-1.5-0.1-4.1-1.9-4.1-3.9c1.1-3.5,3-8,5.2-12.6c1-0.3,3.8,0.4,4.2,1.3c-0.8,1.7-1.5,3.5-2.2,5.2l5.6-6.4
		l0.1-0.1l0,0l0,0v0c1.5,0.2,2.9,0.3,3.9,1.4c-1.5,3.3-3.2,7.5-4.2,10.6c-1.3,4.2,1.3,1.4,2.5,0c0.6-0.7,1.2-1.5,1.5-2.2
		c0.1-0.1,0.1-0.2,0.2-0.3C46.8,21.3,47.9,21.5,47.5,22.4z"/>
    <path class="st0" d="M62.4,22.4c-1.4,1.9-3,3.3-4.7,4.4c-3.4,2.2-7.3,3.7-10.2,0.2h0c-1.1-1.3-1.4-3-1.2-4.8h0
		C47.3,15.6,55.8,8,60,16.4v0.1l-1.3,1c-0.3,0-0.6-0.1-0.9-0.1c0.1-0.3,0.3-0.6,0.4-0.9c-1.8-1.8-5.8,1.4-7.1,5.2l-0.2,0.5h0
		c-1.5,4.9,1.6,6,6.2,3.2c1.5-0.9,3-2.1,4.2-3.7C61.9,21.3,62.8,21.6,62.4,22.4z"/>
    <path class="st0" d="M78.2,22.4c-0.1,0.1-0.1,0.2-0.1,0.2c-0.6,0.8-1.2,1.7-1.8,2.7c-1,1.4-2.4,3.2-4.3,3.5c0,0,0,0,0,0
		c0,0-0.1,0-0.1,0c-0.5,0.1-1,0-1.5-0.1c-1.9-0.5-2.1-2.9-1.6-4.5c0.8-2.6,1.8-5.8,3.1-9.1c-3.2,3.5-5.6,7.3-7.1,11.4
		c-0.2,0.8-0.4,1.6-0.5,2.4c-1.5-0.1-4.1-1.9-4.1-3.9c1.7-5.8,5.9-14.2,9.6-21.7C71,3,73.5,4.6,73.5,5.6c-2.3,4.2-4.5,8.9-6.2,13.3
		l5.8-6.7c1.3,0.7,2.5,1.4,3.8,2.2c-1.5,3.3-3,6.7-4,9.8c-1.2,3.9,1.1,1.8,2.3,0.2c0.6-0.8,1.3-1.6,1.7-2.4c0.1-0.1,0.1-0.2,0.2-0.3
		C77.5,21.3,78.5,21.5,78.2,22.4z"/>
    <path class="st0" d="M51.2,9.9V8.7c-3.4,0-6.4,0-6.4,0v1.1H51.2z"/>
    <path class="st0" d="M25.6,7.6c0,0.9-1.4,0.9-1.4,0C24.2,6.7,25.6,6.7,25.6,7.6z"/>
    <path class="st0" d="M24.1,2.5c0.3-0.7,1.4-0.7,1.7,0h0l2.9,7.4h-1.2l-2.6-6.4h0l-2.6,6.4h-1.2L24.1,2.5z"/>
    <path class="st0" d="M36.2,2H35v6.2c-0.4-0.3-4.2-6.6-4.8-6.2c-0.5,0-0.9,0.4-0.9,0.9l0,7h1.1V3.7c0.4,0.3,4.2,6.6,4.8,6.2
			c0.5,0,0.9-0.4,0.9-1L36.2,2z"/>
    <path class="st0" d="M40.4,2h-3.2l0,6.9c0,1.5,2.4,0.8,3.2,1C45.2,10.4,45.3,1.4,40.4,2z M42.4,8c-0.6,1.1-3,0.6-4.1,0.7V3.1
			c0.9,0.1,3.1-0.3,3.8,0.4C43.1,4.1,43.1,7.1,42.4,8z"/>
    <path class="st0" d="M51.2,6.5V5.4c-3.4,0-6.4,0-6.4,0v1.1H51.2z"/>
    <path class="st0" d="M56.3,2c-5.3-1.1-5.8,8.3-0.6,7.9C60.9,11,61.5,1.6,56.3,2z M56.6,8.8h-1.4c-2.7,0.3-3-5.9,0-5.7
			c0.9,0,2.4-0.2,3,0.7C59.2,5.2,58.8,9.1,56.6,8.8z"/>
    <path class="st0" d="M51.2,3.1V2c-3.4,0-6.4,0-6.4,0v1.1H51.2z"/>
    <polygon class="st1" points="25.1,31.7 25.9,33.4 27.7,33.7 26.4,34.9 26.7,36.7 25.1,35.9 23.4,36.7 23.8,34.9 22.4,33.7 24.3,33.4"/>
    <polygon class="st1" points="31.8,31.7 32.6,33.4 34.4,33.7 33.1,34.9 33.4,36.7 31.8,35.9 30.2,36.7 30.5,34.9 29.2,33.7 31,33.4"/>
    <polygon class="st1" points="38.7,31.7 39.5,33.4 41.3,33.7 40,34.9 40.3,36.7 38.7,35.9 37.1,36.7 37.4,34.9 36.1,33.7 37.9,33.4"/>
    <polygon class="st1" points="45.4,31.7 46.2,33.4 48,33.7 46.7,34.9 47,36.7 45.4,35.9 43.8,36.7 44.1,34.9 42.8,33.7 44.6,33.4"/>
    <polygon class="st1" points="52.4,31.7 53.2,33.4 55,33.7 53.7,34.9 54,36.7 52.4,35.9 50.8,36.7 51.1,34.9 49.8,33.7 51.6,33.4"/>
</svg>
