<?xml version="1.0" encoding="UTF-8" standalone="no"?>
<svg xmlns="http://www.w3.org/2000/svg" xml:space="preserve" viewBox="0 0 111.5 108.8" version="1.1">
<style type="text/css">
	.st0{fill:#043951;}
	.st1{fill:none;stroke:#FFFFFF;stroke-width:3;stroke-linecap:round;stroke-miterlimit:10;stroke-dasharray:0.1,5.9736;}
	.st2{fill:#FFFFFF;}
	.st3{fill:#E4C060;}
</style>
    <path d="M55.8,0C25,0,0,24.4,0,54.4c0,30,25,54.4,55.8,54.4c30.7,0,55.8-24.4,55.8-54.4C111.5,24.4,86.5,0,55.8,0 L55.8,0z" class="st0"/>
    <ellipse ry="50.6" rx="51.9" cy="54.4" cx="55.8" class="st1"/>
    <path
        d="M32.7,29c-5.5,8.4-12.9,25.6-16.6,35.1c4.6-1.2,22.2-4,15,7c-1.3-5.8-11.7-3.7-19.6-1.7    c-1.6,0.2-1.6-0.9-1.2-3.5c2.8-10,11.4-30.6,17.4-39.9C29,25.6,32.3,27.7,32.7,29z"
        class="st2"/>
    <path
        d="M47.6,52.5c-0.1,0.1-0.1,0.2-0.2,0.3c-1.7,2.3-3.9,6.7-7.2,7.3c0,0,0,0,0,0c-0.1,0-0.1,0-0.2,0    c-0.6,0.1-1.1,0-1.8-0.1c-2.3-0.6-2.5-3.4-1.9-5.4l0.1-0.3c-1.9,2.4-4.1,4.5-6.7,5.8c-3.6-0.3-5.1-3.1-4-6.4    c1.3-3.8,3.1-8.4,5.3-13.1c1.2-0.4,4.5,0.5,4.9,1.5c-1.9,4.3-3.6,8.6-4.8,12.5c-0.4,1.3-0.3,0.8-0.6,2c-0.5,1.8-0.5,1.7,1.1,0.5    c3.1-2.4,5.6-6.9,8-12.2c0.4-1.1,0.9-2.3,1.4-3.4l0,0c0.2-0.4,0.3-0.7,0.5-1.1c1.8,0.2,3.7,0.4,4.9,1.7c-1.8,4-4,8.8-5.1,12.4    c-2,6.5,3.8-0.9,4.8-2.6c0.1-0.1,0.2-0.2,0.2-0.3C46.8,51.2,48,51.4,47.6,52.5z"
        class="st2"/>
    <path
        d="M66.1,52.5c-0.1,0.1-0.1,0.2-0.2,0.3c-0.6,0.8-1.2,1.8-1.9,2.8c-1.2,1.8-2.9,4.1-5.2,4.4c0,0,0,0,0,0    c-0.1,0-0.1,0-0.2,0c-0.6,0.1-1.1,0-1.8-0.1c-2.3-0.6-2.5-3.4-1.9-5.4c0.9-3.1,2.1-6.8,3.6-10.6c-3.5,4-6.3,8.2-8.1,12.7    c-0.3,1.2-0.6,2.3-0.8,3.4c-1.8-0.2-4.8-2.2-4.8-4.6c1.2-4.1,3.6-9.4,6.1-14.9c1.2-0.4,4.5,0.5,4.9,1.5c-0.9,2-1.8,4.1-2.6,6.1    l6.7-7.6l0.1-0.2l0.1,0l0,0v0c1.8,0.2,3.5,0.3,4.6,1.6c-1.8,3.9-3.8,8.8-4.9,12.5c-1.5,4.9,1.6,1.7,3,0c0.7-0.8,1.4-1.7,1.8-2.5    c0.1-0.1,0.2-0.2,0.2-0.3C65.3,51.2,66.6,51.4,66.1,52.5z"
        class="st2"/>
    <path
        d="M83.7,52.4c-1.7,2.2-3.6,3.9-5.5,5.2c-4,2.6-8.7,4.3-12,0.2h0c-1.3-1.5-1.7-3.6-1.4-5.7h0    c1.1-7.8,11.2-16.7,16-6.8v0.1l-1.5,1.2c-0.3,0-0.7-0.1-1-0.1c0.2-0.4,0.3-0.7,0.5-1.1c-2.1-2.1-6.8,1.7-8.4,6.1l-0.2,0.6h0    C68.4,58,72,59.3,77.5,56c1.8-1.1,3.5-2.5,5-4.3C83.1,51.2,84.1,51.5,83.7,52.4z"
        class="st2"/>
    <path
        d="M102.3,52.5c-0.1,0.1-0.1,0.2-0.2,0.3c-0.7,0.9-1.4,2-2.2,3.1c-1.2,1.7-2.8,3.8-5,4.1c0,0,0,0,0,0    c-0.1,0-0.1,0-0.2,0c-0.6,0.1-1.1,0-1.8-0.1c-2.3-0.6-2.5-3.4-1.9-5.4c0.9-3.1,2.1-6.9,3.7-10.7c-3.8,4.2-6.6,8.6-8.4,13.4    c-0.2,1-0.5,1.9-0.6,2.8c-1.8-0.2-4.8-2.2-4.8-4.6c2.1-6.8,7-16.8,11.3-25.7c1.6-0.3,4.5,1.6,4.5,2.8c-2.7,5-5.3,10.5-7.4,15.7    l6.9-7.9c1.5,0.9,3,1.7,4.4,2.6c-1.8,4-3.6,7.9-4.7,11.5c-1.4,4.6,1.2,2.1,2.7,0.3c0.7-0.9,1.5-1.9,2-2.8c0.1-0.1,0.2-0.2,0.2-0.3    C101.5,51.2,102.7,51.4,102.3,52.5z"
        class="st2"/>
    <path
        d="M70.5,37.7v-1.3c-4,0-7.5,0-7.5,0v1.3H70.5z"
        class="st2"/>
    <path
        d="M40.2,35c0,1.1-1.7,1.1-1.6,0C38.6,33.9,40.2,33.9,40.2,35z"
        class="st2"/>
    <path
        d="M38.4,29c0.3-0.9,1.7-0.9,2,0h0l3.5,8.7h-1.4l-3.1-7.6h0l-3.1,7.6h-1.4L38.4,29z"
        class="st2"/>
    <path
        d="M52.7,28.3h-1.3v7.3c-0.4-0.3-5-7.8-5.7-7.3c-0.6,0-1.1,0.5-1,1.1v8.3H46v-7.3c0.5,0.4,4.9,7.8,5.6,7.3     c0.6,0,1.1-0.5,1.1-1.1L52.7,28.3z"
        class="st2"/>
    <path
        d="M57.7,28.3h-3.8l0,8.2c-0.1,1.7,2.9,1,3.8,1.1C63.4,38.3,63.5,27.6,57.7,28.3z M60,35.5     c-0.7,1.3-3.6,0.7-4.8,0.8v-6.7c1,0.1,3.6-0.3,4.4,0.5C60.9,30.9,60.9,34.4,60,35.5z"
        class="st2"/>
    <path
        d="M70.5,33.7v-1.3c-4,0-7.5,0-7.5,0v1.3H70.5z"
        class="st2"/>
    <path
        d="M76.4,28.3c-6.3-1.3-6.9,9.8-0.7,9.3C82,39,82.6,27.9,76.4,28.3z M76.9,36.4h-1.6c-3.2,0.4-3.5-7,0-6.7     c1.1,0,2.8-0.2,3.5,0.8C80,32.1,79.5,36.8,76.9,36.4z"
        class="st2"/>
    <path
        d="M70.5,29.7v-1.3c-4,0-7.5,0-7.5,0v1.3H70.5z"
        class="st2"/>
    <polygon
        points="39.6,63.5 40.6,65.5 42.7,65.8 41.2,67.3 41.5,69.4 39.6,68.4 37.7,69.4 38,67.3 36.5,65.8    38.6,65.5"
        class="st3"/>
    <polygon
        points="47.5,63.5 48.5,65.5 50.6,65.8 49.1,67.3 49.4,69.4 47.5,68.4 45.6,69.4 46,67.3 44.4,65.8    46.6,65.5"
        class="st3"/>
    <polygon
        points="55.7,63.5 56.7,65.5 58.8,65.8 57.3,67.3 57.6,69.4 55.7,68.4 53.8,69.4 54.2,67.3 52.6,65.8    54.8,65.5"
        class="st3"/>
    <polygon
        points="63.6,63.5 64.6,65.5 66.7,65.8 65.2,67.3 65.6,69.4 63.6,68.4 61.7,69.4 62.1,67.3 60.5,65.8    62.7,65.5"
        class="st3"/>
    <polygon
        points="71.9,63.5 72.8,65.5 75,65.8 73.4,67.3 73.8,69.4 71.9,68.4 70,69.4 70.3,67.3 68.8,65.8 70.9,65.5"
        class="st3"/>
    <path
        d="M43.5,74.7c0.1-0.1,0.2-0.2,0.3-0.3c0.2,0.2,0.4,0.4,0.6,0.6c1.9,1.7,3.7,3.5,5.6,5.2    c0.1,0.1,0.2,0.1,0.3,0.1c0.1-0.1,0.2-0.2,0.3-0.3c0,0-0.1-0.2-0.1-0.2c-1-1.1-2-2.2-3.1-3.3c-0.8-0.9-1.6-1.8-2.5-2.6    c-0.3-0.3-0.3-0.3,0.1-0.5c0.5,0.5,1.1,1,1.6,1.5c1.5,1.4,3.1,2.9,4.6,4.3c0.2,0.2,0.2,0.2,0.4-0.1c0.2-0.2,0.2-0.2,0-0.4    c-1.9-2-3.7-4-5.6-6c-0.3-0.3-0.3-0.3,0.1-0.5c0.2,0.2,0.5,0.5,0.8,0.7c1.8,1.7,3.6,3.4,5.4,5c0.8,0.7,1.3,1.7,1.4,2.7    c0.1,0.5,0.2,0.9,0.2,1.4c0.1,0.7,0.5,1.3,1,1.9c1.2,1.3,2.5,2.5,3.9,3.6c2.8,2.3,5.5,4.9,8,7.6c0.6,0.7,1.2,1.4,1.8,2.2    c0.3,0.3,0.4,0.7,0.4,1.2c0,0.4-0.1,0.5-0.5,0.5c-0.6,0-1-0.2-1.4-0.6c-1.1-0.8-2.1-1.7-3-2.7c-1.4-1.4-2.9-2.9-4.2-4.3    c-1.2-1.3-2.4-2.7-3.6-4.1c-0.7-0.8-1.5-1.6-2.3-2.4c-0.6-0.6-1.3-0.8-2-1c-0.7-0.1-1.4-0.2-2-0.4c-0.7-0.2-1.3-0.6-1.8-1.1    c-1.7-1.8-3.4-3.6-5.1-5.4c-0.2-0.2-0.4-0.5-0.6-0.7c-0.1-0.1-0.1-0.2,0-0.3c0.1-0.1,0.2-0.1,0.3,0c1.5,1.4,3.1,2.9,4.6,4.3    c0.5,0.5,1,0.9,1.5,1.4c0.2,0.1,0.3,0.1,0.4,0c0.2-0.2,0.2-0.3,0.1-0.4c-1.3-1.4-2.6-2.8-3.9-4.2c-0.6-0.6-1.1-1.2-1.7-1.8    C43.7,74.8,43.6,74.8,43.5,74.7z"
        class="st2"/>
    <path
        d="M68.2,73.6c0,0.4-0.2,0.8-0.4,1.2c-0.4,0.7-1,1.3-1.5,1.9c-2.8,2.8-5.6,5.6-8.4,8.4c-0.2,0.2-0.5,0.2-0.8,0    c-0.2-0.2-0.3-0.3-0.5-0.5c-0.4-0.3-0.6-0.7-0.9-1.1c-0.1-0.1-0.1-0.3,0-0.5c0.6-0.9,1.2-1.8,1.9-2.6c1.3-1.7,2.7-3.3,4.3-4.6    c1.3-1.1,2.7-2.1,4.3-2.7c0.3-0.1,0.6-0.2,1-0.3c0.2,0,0.4,0,0.6,0.1C68,73,68.2,73.2,68.2,73.6z"
        class="st2"/>
    <path
        d="M54.5,85.7c0.3,0.4,0.7,0.7,1,1.1c0,0-0.1,0.1-0.1,0.1c-1.5,1.7-3,3.5-4.6,5.1c-1.6,1.6-3.1,3.2-4.9,4.7    c-0.4,0.3-0.8,0.6-1.2,0.9c-0.3,0.2-0.7,0.3-1.1,0.3c-0.3,0-0.4-0.1-0.4-0.4c0-0.5,0.2-0.9,0.5-1.3c0.8-1,1.6-1.9,2.5-2.8    c1.9-1.9,3.7-3.8,5.7-5.5c0.8-0.7,1.6-1.3,2.3-2C54.4,85.8,54.4,85.8,54.5,85.7z"
        class="st2"/>
</svg>
