<svg xmlns="http://www.w3.org/2000/svg" width="40" height="40" viewBox="0 0 113.38583 113.38583">
    <style>
        .c2{fill:#fff;}
        .s{fill:#e4c060;}
    </style>
    <path d="M56.69312,0a56.69292,56.69292,0,1,0,56.69271,56.69291A56.75774,56.75774,0,0,0,56.69312,0Z" fill="#043951"/>
    <path class="c2"
          d="M56.68792,110.94973h-.10058a1.5,1.5,0,0,1,0-3h.10058a1.5,1.5,0,1,1,0,3Zm6.01856-.33985a1.49975,1.49975,0,0,1-.17286-2.98925l.09961-.01172a1.49948,1.49948,0,1,1,.34961,2.97851l-.09961.01172A1.34221,1.34221,0,0,1,62.70648,110.60988Zm-12.13672-.01269a1.3525,1.3525,0,0,1-.17676-.01074l-.09961-.01172a1.49948,1.49948,0,0,1,.34961-2.97852l.09961.01172a1.49976,1.49976,0,0,1-.17285,2.98926Zm18.25781-1.05664a1.52875,1.52875,0,0,1-1.49316-1.13672,1.46286,1.46286,0,0,1,1.06054-1.80078l.10742-.02539a1.49988,1.49988,0,1,1,.6875,2.91992A1.53624,1.53624,0,0,1,68.82757,109.54055Zm-24.2959-.00391a1.50109,1.50109,0,0,1-.34472-.04l-.10743-.02539a1.50025,1.50025,0,0,1,.707-2.916l.0879.02148a1.5,1.5,0,0,1-.34278,2.96Zm30.12891-1.73828a1.50837,1.50837,0,0,1-1.417-.9668A1.47983,1.47983,0,0,1,74.1,104.90871l.14649-.05273a1.49992,1.49992,0,1,1,.94921,2.8457A1.53067,1.53067,0,0,1,74.66058,107.79836Zm-36.00293-.02246a1.48845,1.48845,0,0,1-.47363-.07715l-.14649-.05273a1.49971,1.49971,0,1,1,1.05274-2.8086l.043.01563a1.50075,1.50075,0,0,1-.47558,2.92285Zm41.60351-2.38672a1.5001,1.5001,0,0,1-.65429-2.85059l.03906-.01855a1.49983,1.49983,0,0,1,1.41016,2.64746l-.14258.07227A1.49733,1.49733,0,0,1,80.26116,105.38918Zm-47.22949-.04785a1.49179,1.49179,0,0,1-.70508-.17676,1.51872,1.51872,0,0,1-.71582-2.01269,1.48451,1.48451,0,0,1,1.98535-.70606l.14258.07227a1.49995,1.49995,0,0,1-.707,2.82324Zm52.543-3.01563a1.50006,1.50006,0,0,1-.82324-2.75488l.06445-.042a1.49974,1.49974,0,1,1,1.6836,2.48242l-.10352.06934A1.49562,1.49562,0,0,1,85.57464,102.3257ZM27.728,102.271a1.49395,1.49395,0,0,1-.84082-.25879,1.5328,1.5328,0,0,1-.46484-2.09766,1.46731,1.46731,0,0,1,2.04492-.4541l.10351.06934A1.49994,1.49994,0,0,1,27.728,102.271Zm62.79-3.6377a1.4882,1.4882,0,0,1-.99023-2.6084l.09863-.082a1.5,1.5,0,1,1,1.89453,2.32617A1.55362,1.55362,0,0,1,90.518,98.63332ZM22.81487,98.607a1.494,1.494,0,0,1-.94628-.33691L21.77,98.188a1.50022,1.50022,0,0,1,1.9375-2.291l.05567.04688a1.5,1.5,0,0,1-.94825,2.66308Zm72.14942-4.13574a1.5,1.5,0,0,1-1.082-2.53906l.04785-.04981a1.49975,1.49975,0,0,1,2.207,2.03125l-.09082.09668A1.49714,1.49714,0,0,1,94.96429,94.47121ZM18.35491,94.4009a1.49463,1.49463,0,0,1-1.10351-.48438,1.529,1.529,0,0,1,.01953-2.1455,1.47009,1.47009,0,0,1,2.09668.01757l.09082.09668a1.5,1.5,0,0,1-1.10352,2.51563Zm80.56348-4.61328a1.50008,1.50008,0,0,1-1.18262-2.4209l.02442-.03223a1.50012,1.50012,0,0,1,2.44043,1.74512l-.09766.12891A1.49589,1.49589,0,0,1,98.91839,89.78762Zm-84.50977-.07715a1.49626,1.49626,0,0,1-1.20605-.60742,1.53962,1.53962,0,0,1,.27246-2.13672,1.45928,1.45928,0,0,1,2.07227.26269l.06543.08887a1.5001,1.5001,0,0,1-1.20411,2.39258Zm87.89454-5.05078a1.49393,1.49393,0,0,1-1.30079-2.21778l.08106-.13867a1.49995,1.49995,0,0,1,2.54883,1.582A1.53069,1.53069,0,0,1,102.30316,84.65969ZM11.02,84.5884a1.48544,1.48544,0,0,1-1.2666-.7041l-.081-.13867a1.49957,1.49957,0,1,1,2.60937-1.47852l.02149.03613A1.50293,1.50293,0,0,1,11.02,84.5884Zm94.05957-5.37109a1.5,1.5,0,0,1-1.36621-2.11719l.01758-.04a1.50011,1.50011,0,0,1,2.7793,1.12988l-.0625.14453A1.50111,1.50111,0,0,1,105.07952,79.21731ZM8.26409,79.11867a1.4989,1.4989,0,0,1-1.38379-.91992A1.53354,1.53354,0,0,1,7.63714,76.187a1.46857,1.46857,0,0,1,1.96.73731l.04883.11425a1.49881,1.49881,0,0,1-.80273,1.9629A1.48281,1.48281,0,0,1,8.26409,79.11867Zm98.93457-5.65429a1.50026,1.50026,0,0,1-1.43652-1.93457l.0293-.09668a1.49988,1.49988,0,1,1,2.87109.86914l-.0293.09668A1.49948,1.49948,0,0,1,107.19866,73.46438ZM6.15472,73.35793A1.49948,1.49948,0,0,1,4.72015,72.2925l-.0293-.09668a1.49988,1.49988,0,0,1,2.8711-.86914l.02929.09668a1.50022,1.50022,0,0,1-1.43652,1.93457Zm102.4668-5.90234a1.42366,1.42366,0,0,1-.24707-.02149,1.4619,1.4619,0,0,1-1.22461-1.69238l.01953-.10645a1.49982,1.49982,0,1,1,2.95117.53711A1.55367,1.55367,0,0,1,108.62152,67.45559ZM4.73577,67.39309a1.49946,1.49946,0,0,1-1.47363-1.23145l-.01953-.10644a1.50037,1.50037,0,1,1,2.95508-.52149l.01562.09082a1.50075,1.50075,0,0,1-1.47754,1.76856Zm104.61914-5.97754c-.02929,0-.05859-.001-.08886-.00293a1.4986,1.4986,0,0,1-1.40918-1.585l.00488-.09864a1.47964,1.47964,0,0,1,1.584-1.41113,1.4985,1.4985,0,0,1,1.41114,1.583l-.00586.10254A1.5004,1.5004,0,0,1,109.35491,61.41555ZM4.02484,61.30617a1.50025,1.50025,0,0,1-1.49707-1.41406A1.544,1.544,0,0,1,3.935,58.25734,1.44874,1.44874,0,0,1,5.517,59.6177l.00586.10254a1.49848,1.49848,0,0,1-1.41113,1.583C4.08245,61.3052,4.05316,61.30617,4.02484,61.30617Zm105.33593-6.06836a1.45324,1.45324,0,0,1-1.48632-1.36328l-.00586-.10254a1.5,1.5,0,1,1,2.99511-.17187,1.544,1.544,0,0,1-1.40722,1.63476C109.42425,55.23684,109.392,55.23781,109.36077,55.23781ZM4.02093,55.17629c-.02832,0-.05762-.001-.08691-.00293a1.49849,1.49849,0,0,1-1.41114-1.583l.00586-.10254a1.49965,1.49965,0,1,1,2.99414.17578l-.00488.09864A1.50025,1.50025,0,0,1,4.02093,55.17629Zm104.66016-5.98145a1.50106,1.50106,0,0,1-1.47559-1.23925l-.01758-.09961a1.50037,1.50037,0,0,1,2.95508-.52149l.01758.09961a1.49844,1.49844,0,0,1-1.47949,1.76074Zm-103.958-.10937a1.5007,1.5007,0,0,1-1.47754-1.76856A1.54116,1.54116,0,0,1,4.99163,46.0552a1.4619,1.4619,0,0,1,1.22461,1.69238l-.01953.10644A1.50039,1.50039,0,0,1,4.72308,49.08547Zm102.542-5.88477a1.46062,1.46062,0,0,1-1.41113-1.04l-.04-.13671a1.50008,1.50008,0,1,1,2.89453-.78907,1.525,1.525,0,0,1-.99219,1.89844A1.54588,1.54588,0,0,1,107.26507,43.2007Zm-101.13574-.081A1.50023,1.50023,0,0,1,4.6928,41.18508l.0293-.09668a1.49988,1.49988,0,0,1,2.8711.86914l-.0293.09668A1.49949,1.49949,0,0,1,6.12933,43.11965Zm99.03515-5.69238a1.44263,1.44263,0,0,1-1.335-.86914l-.04882-.11426a1.49955,1.49955,0,1,1,2.76562-1.16016,1.53353,1.53353,0,0,1-.75684,2.01172A1.56911,1.56911,0,0,1,105.16448,37.42727ZM8.2221,37.35207a1.49895,1.49895,0,0,1-1.38769-2.05859l.0625-.14453a1.5,1.5,0,1,1,2.73437,1.23437l-.01758.04A1.51021,1.51021,0,0,1,8.2221,37.35207Zm94.23926-5.38086a1.49749,1.49749,0,0,1-1.30566-.76074l-.03907-.06738a1.5,1.5,0,1,1,2.58789-1.51758l.06055.10644a1.50026,1.50026,0,0,1-1.30371,2.23926Zm-91.48731-.08789a1.5,1.5,0,0,1-1.27343-2.291,1.51614,1.51614,0,0,1,2.05468-.583,1.48143,1.48143,0,0,1,.5752,2.02636l-.08105.13868A1.49814,1.49814,0,0,1,10.97405,31.88332Zm88.12793-5.041a1.4999,1.4999,0,0,1-1.22168-.62793l-.02441-.03418a1.50712,1.50712,0,0,1,.27832-2.10157,1.48927,1.48927,0,0,1,2.09082.26172l.09668.12989A1.49994,1.49994,0,0,1,99.102,26.84231ZM18.27972,22.064a1.5,1.5,0,0,1-1.10352-2.51563l.09082-.09668a1.50015,1.50015,0,0,1,2.16407,2.07813l-.04786.0498A1.49461,1.49461,0,0,1,18.27972,22.064ZM90.727,17.91164a1.4932,1.4932,0,0,1-.96777-.35449l-.05566-.04688a1.5,1.5,0,1,1,1.89453-2.32617l.09863.082a1.5,1.5,0,0,1-.96973,2.64551Zm-67.99316-.0625a1.5,1.5,0,0,1-.94824-2.66308,1.531,1.531,0,0,1,2.1416.15332,1.46942,1.46942,0,0,1-.14844,2.09082l-.09863.082A1.49406,1.49406,0,0,1,22.73382,17.84914Zm63.06445-3.62695a1.444,1.444,0,0,1-.793-.23926l-.10351-.06934a1.49974,1.49974,0,1,1,1.68359-2.48242,1.53281,1.53281,0,0,1,.46485,2.09766A1.50141,1.50141,0,0,1,85.79827,14.22219Zm-58.15722-.04883a1.49995,1.49995,0,0,1-.84278-2.74121l.10352-.06934a1.50029,1.50029,0,1,1,1.64453,2.50977l-.06445.042A1.49389,1.49389,0,0,1,27.64105,14.17336ZM74.92034,8.6802a1.48591,1.48591,0,0,1-.52636-.09571l-.08106-.02929a1.50047,1.50047,0,0,1,1.02539-2.82032l.1084.041a1.49989,1.49989,0,0,1-.52637,2.9043ZM38.56683,8.64309a1.5,1.5,0,0,1-.47461-2.92285,1.52011,1.52011,0,0,1,1.95215.87011,1.47984,1.47984,0,0,1-.85645,1.92285l-.14648.05274A1.49031,1.49031,0,0,1,38.56683,8.64309ZM69.05511,6.898a1.52779,1.52779,0,0,1-.35449-.042l-.08789-.02149a1.49988,1.49988,0,1,1,.6875-2.91992l.10742.02539a1.50011,1.50011,0,0,1-.35254,2.958ZM44.437,6.8716a1.5,1.5,0,0,1-.34278-2.96,1.53733,1.53733,0,0,1,1.85547,1.09375,1.46287,1.46287,0,0,1-1.06055,1.80078l-.10742.02539A1.49491,1.49491,0,0,1,44.437,6.8716ZM63.02288,5.812a1.35271,1.35271,0,0,1-.17676-.01074l-.0996-.01172a1.49948,1.49948,0,1,1,.3496-2.97851l.09961.01171A1.49976,1.49976,0,0,1,63.02288,5.812ZM50.4721,5.79934a1.49976,1.49976,0,0,1-.17285-2.98926l.09961-.01172a1.49948,1.49948,0,0,1,.34961,2.97852l-.09961.01171A1.34055,1.34055,0,0,1,50.4721,5.79934Zm6.43164-.36328h-.10058c-.03907,0-.07618-.001-.11036-.001h-.10058a1.5,1.5,0,0,1,0-3h.10058c.03907,0,.0752.001.11036.001h.10058a1.5,1.5,0,0,1,0,3ZM14.35508,26.74749a1.5,1.5,0,0,1-1.27344-2.291,1.51615,1.51615,0,0,1,2.05469-.583,1.48144,1.48144,0,0,1,.57519,2.02636l-.081.13868A1.49814,1.49814,0,0,1,14.35508,26.74749ZM32.98252,11.11828a1.5,1.5,0,0,1-1.27344-2.291,1.51616,1.51616,0,0,1,2.05469-.583,1.48145,1.48145,0,0,1,.57519,2.02637l-.081.13867A1.49812,1.49812,0,0,1,32.98252,11.11828Zm47.50209.015a1.5,1.5,0,0,1-1.27344-2.291,1.51615,1.51615,0,0,1,2.05469-.583,1.48144,1.48144,0,0,1,.57519,2.02636l-.081.13868A1.49814,1.49814,0,0,1,80.48461,11.13332Zm14.638,11.00195a1.5,1.5,0,0,1-1.27343-2.291,1.51615,1.51615,0,0,1,2.05468-.583,1.48144,1.48144,0,0,1,.5752,2.02637l-.08106.13867A1.49811,1.49811,0,0,1,95.12263,22.13527Z"/>
    <path class="c2"
          d="M16.37945,66.88814C20.09808,56.99447,27.623,39.04726,33.239,30.27724c-.40247-1.36853-3.73938-3.62286-5.15735-3.08508C21.99236,36.8,13.28143,58.35354,10.38861,68.74483c-.42945,2.74884-.39637,3.85431,1.22753,3.68976,8.05249-2.17084,18.647-4.337,19.969,1.72522C38.99481,62.69607,21.10443,65.62435,16.37945,66.88814Z"/>
    <path class="c2"
          d="M102.79363,53.87954c-.05615.11261-.16357.21106-.229.32678a23.48566,23.48566,0,0,1-2.0824,2.95593c-1.51941,1.90863-4.21252,4.51648-2.78613-.27795A113.4654,113.4654,0,0,1,102.45721,44.852q-2.26062-1.33227-4.52222-2.66534L90.90948,50.389a149.16566,149.16566,0,0,1,7.48108-16.37158c.07764-1.304-2.94592-3.21894-4.52832-2.94648-3.63025,7.70264-7.746,16.22174-10.22461,22.96088A18.81926,18.81926,0,0,1,78.76946,58.326C73.238,61.80709,69.5639,60.4,71.32525,54.40474H71.3161l.20581-.626c1.58166-4.6236,6.4226-8.58106,8.54113-6.36688-.16357.38183-.32483.76294-.48938,1.14483.34961.04883.69751.09448,1.04932.14331l1.55566-1.24566v-.14331c-4.87426-10.13318-14.83691-1.32422-16.2312,6.65356a2.78855,2.78855,0,0,0-.17065.2417,21.85561,21.85561,0,0,1-1.84424,2.65356c-1.40881,1.7984-4.54053,5.16687-3.00891.02442a130.65436,130.65436,0,0,1,5.00525-12.99683c-1.186-1.33465-2.85449-1.48743-4.70484-1.69214v-.00549l-.00537.00549-.0592-.00549-.07214.15826-6.766,7.90393c.80433-2.10473,1.693-4.24487,2.63709-6.37951-.471-1.0567-3.81616-2.01264-4.99927-1.58509C50.0324,46.495,48.258,50.57857,46.94891,54.15676c-.01148.01678-.02576.0321-.03565.04956-.95337,1.71027-6.8551,9.46692-4.83178,2.678a133.78992,133.78992,0,0,1,5.2135-12.963c-1.19763-1.35035-3.13416-1.57874-4.97534-1.7378-.17286.37561-.33948.75434-.507,1.13l-.00232.00866c-.5155,1.18268-.99866,2.36377-1.44263,3.5307-2.359,5.515-4.9447,10.17163-8.09949,12.67633-1.63842,1.304-1.65075,1.34961-1.15918-.51965.3396-1.29132.18445-.73859.59839-2.12836a111.512,111.512,0,0,1,4.91236-13.015c-.47-1.05664-3.81617-2.01257-4.99829-1.585A132.83607,132.83607,0,0,0,26.196,55.9504c-1.1084,3.4079.47705,6.31494,4.09045,6.66614a21.56672,21.56672,0,0,0,6.86121-6.03778l-.08606.28741c-.58679,2-.37879,4.93543,1.92737,5.58264a4.56141,4.56141,0,0,0,1.78747.1496c.05384.00555.10681.01184.16053.01813l.00927-.04255c1.96387-.32281,3.552-2.08905,4.87989-3.97021.53125,2.15851,3.20166,3.86359,4.79882,4.019.21118-1.12439.47937-2.30627.80042-3.52673a44.5838,44.5838,0,0,1,8.19006-13.27875c-1.58154,3.98584-2.76452,7.85749-3.70862,11.05432-.58679,2.0008-.37878,4.93543,1.92737,5.58271a4.5409,4.5409,0,0,0,1.78748.14959l.16052.01886c.00391-.01574.0061-.02832.00928-.04327,2.35058-.38507,4.0758-2.76618,5.3363-4.62915.24573-.364.48279-.72717.71668-1.08618a6.513,6.513,0,0,0,1.45874,3.44366H67.3001c3.41065,4.24805,8.16858,2.45514,12.21448-.25036a22.54125,22.54125,0,0,0,2.8584-2.25995l-.00464.01507c-.0293,2.51966,3.11109,4.63306,4.89844,4.80628.17529-.9433.39575-1.92676.64917-2.94019a44.33526,44.33526,0,0,1,8.52344-13.996c-1.60926,4.03387-2.806,7.95276-3.76245,11.18664-.58765,1.99994-.37867,4.93464,1.92736,5.58185a4.562,4.562,0,0,0,1.78748.15039c.053.0055.10754.01184.16138.01734.00219-.015.00537-.0268.00842-.04175,2.23767-.36694,3.8999-2.52283,5.12121-4.2945.78663-1.14172,1.50416-2.32043,2.19239-3.27636.06531-.09131.10132-.20783.16675-.296A.75274.75274,0,0,0,102.79363,53.87954Z"/>
    <path class="c2"
          d="M44.27577,77.83749l.3175-.31111c.22131.20977.42972.40546.63617.60329q2.827,2.7088,5.65617,5.41515c.07174.06849.22329.154.27167.12306a1.02938,1.02938,0,0,0,.31688-.34809c.02381-.041-.065-.17288-.12615-.24031q-1.55847-1.71822-3.12362-3.43009Q46.96715,78.27006,45.71074,76.89c-.27143-.29824-.26679-.32753.08831-.57271q.80049.76684,1.60662,1.53912,2.34808,2.25053,4.69642,4.50078c.18859.18059.20573.17529.44977-.07538.17067-.1753.17285-.22216.00732-.40366q-2.835-3.10837-5.671-6.21574c-.26-.28489-.25759-.3128.10063-.55868.25359.24073.51285.48465.76979.73111q2.74191,2.63021,5.48393,5.2603a5.05216,5.05216,0,0,1,1.47092,2.84906c.08546.47494.16188.95165.2377,1.42834a3.63513,3.63513,0,0,0,.99928,1.94814,48.335,48.335,0,0,0,3.96785,3.73406,89.31567,89.31567,0,0,1,8.08694,7.89141c.64717.70977,1.22753,1.48464,1.82243,2.24292a2.04215,2.04215,0,0,1,.39209,1.21574c.01382.36552-.10671.492-.46076.49012a2.35643,2.35643,0,0,1-1.46509-.58077,31.01547,31.01547,0,0,1-3.07406-2.80643c-1.446-1.49316-2.90242-2.97781-4.29606-4.52144-1.24285-1.3766-2.39192-2.84169-3.61054-4.242-.75655-.86934-1.563-1.69326-2.35191-2.53272A3.58487,3.58487,0,0,0,52.881,87.18632a17.63386,17.63386,0,0,1-2.049-.44346,4.01088,4.01088,0,0,1-1.79076-1.161q-2.58025-2.82654-5.16168-5.652c-.218-.23869-.43036-.48342-.65815-.71194-.1366-.13705-.0762-.2211.02546-.33427.11049-.123.18817-.12034.30735-.00554q2.33489,2.24907,4.67719,4.49c.50142.48077,1.00809.95591,1.5032,1.44339.15345.15107.2545.10739.38024-.02725.23323-.24973.24474-.26588.079-.448Q48.2142,82.1607,46.2313,79.98818q-.8668-.95028-1.73592-1.89836C44.42521,78.013,44.35857,77.93284,44.27577,77.83749Z"/>
    <path class="c2"
          d="M69.30814,76.72113a2.85768,2.85768,0,0,1-.42275,1.26571,8.96478,8.96478,0,0,1-1.54885,1.94077q-4.2645,4.36146-8.52153,8.7306a.52029.52029,0,0,1-.79892.00754,6.16422,6.16422,0,0,0-.53776-.5025,6.01785,6.01785,0,0,1-.9127-1.11737.3926.3926,0,0,1,.02176-.49471c.62841-.91946,1.23351-1.85666,1.88786-2.75624a28.89516,28.89516,0,0,1,4.33258-4.82161,13.95531,13.95531,0,0,1,4.41-2.766,5.51725,5.51725,0,0,1,.98374-.26061,1.48934,1.48934,0,0,1,.63.05421C69.1711,76.09905,69.30436,76.31987,69.30814,76.72113Z"/>
    <path class="c2"
          d="M55.38623,89.34191l1.05767,1.15755a1.10133,1.10133,0,0,1-.08125.13123c-1.52561,1.80449-3.00115,3.65519-4.6452,5.351-1.60771,1.65835-3.19247,3.34228-4.93626,4.85473-.39588.34336-.817.6586-1.24324.962a1.82969,1.82969,0,0,1-1.08917.29852c-.2999,0-.41881-.13577-.4124-.454a2.41448,2.41448,0,0,1,.49063-1.40032A30.37106,30.37106,0,0,1,47.05657,97.274c1.883-1.99017,3.78549-3.95969,5.84292-5.76418q1.19321-1.04653,2.384-2.096C55.30853,89.39182,55.33815,89.37529,55.38623,89.34191Z"/>
    <path class="c2" d="M74.58886,39.019V37.46725c-4.615.00187-8.76471.00212-8.76471.00212V39.019Z"/>
    <line class="c2" x1="65.82415" y1="37.46937" x2="65.82415" y2="39.01897"/>
    <path class="c2" d="M74.58886,34.35566V32.80374c-4.615.00213-8.76471.00213-8.76471.00213v1.54979Z"/>
    <path class="c2"
          d="M81.508,28.15743h-.85434c-3.31281,0-4.92859,1.74678-4.93909,5.38035v.04839c0,3.65533,1.61027,5.4328,4.92258,5.4328h.88712c3.31269,0,4.92258-1.77747,4.92258-5.4328v-.04884C86.41549,29.90465,84.8,28.15743,81.508,28.15743ZM82.0342,37.486H80.12752c-1.91129,0-2.88045-1.30635-2.88045-3.88326a4.93734,4.93734,0,0,1,.70926-2.94107,2.57147,2.57147,0,0,1,2.18859-.975h1.87253a2.57769,2.57769,0,0,1,2.17919.97385,4.89419,4.89419,0,0,1,.71865,2.94219C84.91529,36.17966,83.94551,37.486,82.0342,37.486Z"/>
    <path class="c2" d="M39.38836,35.92452a.95812.95812,0,1,1-.9579-.95821A.95819.95819,0,0,1,39.38836,35.92452Z"/>
    <path class="c2" d="M37.289,28.91386a1.24026,1.24026,0,0,1,2.284,0h.00039L43.59293,39.019h-1.5915L38.43315,30.1686h-.00538L34.85925,39.019H33.26768Z"/>
    <path class="c2" d="M74.58886,29.69259V28.15743c-4.615.00213-8.76471,0-8.76471,0v1.53516Z"/>
    <path class="c2"
          d="M53.94132,28.15743H52.377v8.44979l-5.5792-7.95777a1.27377,1.27377,0,0,0-.99272-.492,1.20475,1.20475,0,0,0-1.22137,1.20179l.001.01976v9.64H46.155V30.55626l5.55144,7.92748a1.33405,1.33405,0,0,0,1.0128.53523,1.26807,1.26807,0,0,0,1.22136-1.3191Z"/>
    <path class="c2"
          d="M59.75963,28.15743H55.29938l.00193,9.54182A1.31909,1.31909,0,0,0,56.61622,39.019h3.14341c3.29038,0,4.90577-1.7701,4.93841-5.41666v-.09043C64.6654,29.86532,63.05,28.15743,59.75963,28.15743Zm2.68,8.34a2.55048,2.55048,0,0,1-2.18676.98461H56.85366V29.68716h3.41656a2.69836,2.69836,0,0,1,1.745.54285,4.06269,4.06269,0,0,1,1.12588,3.30464A5.05312,5.05312,0,0,1,62.43967,36.49739Z"/>
    <polygon class="s" points="40.265 66.198 41.24 68.224 43.422 68.549 41.843 70.126 42.216 72.353 40.265 71.302 38.314 72.353 38.687 70.126 37.108 68.549 39.289 68.224 40.265 66.198"/>
    <polygon class="s" points="48.322 66.198 49.298 68.224 51.479 68.549 49.901 70.126 50.273 72.353 48.322 71.302 46.371 72.353 46.744 70.126 45.166 68.549 47.347 68.224 48.322 66.198"/>
    <polygon class="s" points="56.648 66.198 57.624 68.224 59.805 68.549 58.227 70.126 58.599 72.353 56.648 71.302 54.697 72.353 55.07 70.126 53.492 68.549 55.673 68.224 56.648 66.198"/>
    <polygon class="s" points="64.706 66.198 65.681 68.224 67.862 68.549 66.284 70.126 66.657 72.353 64.706 71.302 62.755 72.353 63.127 70.126 61.549 68.549 63.73 68.224 64.706 66.198"/>
    <polygon class="s" points="73.098 66.198 74.073 68.224 76.255 68.549 74.676 70.126 75.049 72.353 73.098 71.302 71.147 72.353 71.519 70.126 69.941 68.549 72.122 68.224 73.098 66.198"/>
</svg>
